<?xml version="1.0" standalone="no"?>
<!DOCTYPE svg PUBLIC "-//W3C//DTD SVG 20010904//EN"
 "http://www.w3.org/TR/2001/REC-SVG-20010904/DTD/svg10.dtd">
<svg version="1.0" xmlns="http://www.w3.org/2000/svg"
 width="1280.000000pt" height="1280.000000pt" viewBox="0 0 1280.000000 1280.000000"
 preserveAspectRatio="xMidYMid meet">

<g transform="translate(0.000000,1280.000000) scale(0.100000,-0.100000)"
fill="#000000" stroke="none">
<path d="M0 6400 l0 -6400 6400 0 6400 0 0 6400 0 6400 -6400 0 -6400 0 0
-6400z m8485 2338 c13 7 24 6 37 -1 13 -9 23 -9 36 0 12 7 24 8 35 1 11 -5 23
-5 34 0 11 7 23 6 35 -1 13 -9 23 -9 36 0 12 7 24 8 35 1 11 -5 23 -5 34 0 11
7 23 6 35 -1 13 -9 23 -9 36 0 12 7 24 8 35 1 11 -5 23 -5 34 0 11 7 25 6 40
-1 17 -7 27 -7 35 1 8 8 17 8 30 1 11 -6 24 -6 35 0 11 5 25 5 40 -2 17 -7 27
-7 34 0 8 8 18 8 35 0 18 -7 28 -7 35 0 8 8 18 8 35 0 18 -7 28 -7 35 0 8 8
18 8 35 1 17 -8 27 -8 38 1 11 10 19 9 35 -1 15 -9 23 -10 32 -1 8 8 18 9 35
0 18 -7 28 -7 35 0 8 8 18 8 35 0 18 -7 28 -7 35 0 8 8 18 8 35 0 18 -7 28 -7
35 0 8 8 18 8 35 0 18 -7 28 -7 35 0 8 8 18 8 35 0 18 -7 28 -7 35 0 8 8 18 8
35 0 18 -7 28 -7 35 0 8 8 18 8 35 1 17 -8 27 -8 38 1 11 10 19 9 35 -1 15 -9
23 -10 32 -1 8 8 18 9 35 1 17 -8 27 -8 38 1 11 10 19 9 35 -1 15 -9 23 -10
32 -1 8 8 18 9 35 0 18 -7 28 -7 35 0 8 8 18 8 35 1 17 -8 27 -8 38 1 11 10
19 9 35 -1 15 -9 23 -10 32 -1 8 8 18 9 35 0 18 -8 28 -7 36 1 15 15 46 -2 58
-34 9 -22 14 -24 85 -24 63 0 77 -3 81 -17 12 -40 22 -48 53 -45 36 3 75 -14
66 -28 -3 -5 15 -15 40 -21 29 -7 52 -21 62 -36 9 -13 23 -23 32 -21 21 3 81
-33 81 -49 0 -7 9 -13 20 -13 36 0 69 -22 72 -49 3 -22 8 -26 38 -27 56 -2 60
-3 60 -18 0 -7 9 -25 20 -39 11 -14 20 -32 20 -41 0 -21 32 -37 51 -25 7 5 17
9 21 9 10 0 68 -89 68 -106 0 -8 6 -17 14 -20 8 -3 19 -18 25 -32 6 -15 16
-36 22 -47 21 -36 29 -50 41 -75 7 -14 18 -29 25 -33 7 -4 13 -15 13 -23 0 -9
9 -27 20 -41 11 -14 20 -31 20 -38 0 -7 7 -15 15 -19 8 -3 15 -17 15 -31 0
-14 5 -25 11 -25 5 0 17 -16 25 -35 8 -19 19 -35 24 -35 6 0 10 -16 10 -35 0
-19 -4 -35 -10 -35 -16 0 -12 -27 5 -34 8 -3 15 -15 15 -26 0 -12 7 -28 15
-36 8 -9 15 -26 15 -38 0 -13 7 -29 15 -36 8 -7 15 -21 15 -32 0 -10 -7 -21
-15 -24 -8 -4 -15 -16 -15 -29 0 -12 7 -28 15 -35 8 -7 15 -20 15 -29 0 -9 9
-24 20 -34 11 -9 20 -21 20 -27 0 -6 -9 -18 -20 -27 -25 -22 -25 -45 -1 -67
21 -19 18 -45 -6 -59 -19 -12 -16 -41 6 -61 21 -19 18 -45 -6 -59 -19 -12 -16
-38 8 -63 17 -18 19 -26 10 -43 -7 -12 -16 -21 -21 -21 -16 0 -11 -47 5 -54 8
-3 15 -16 15 -29 0 -14 -7 -30 -15 -37 -21 -17 -19 -42 5 -63 16 -14 18 -21
10 -37 -5 -10 -15 -22 -20 -25 -6 -3 -10 -17 -10 -31 0 -13 -6 -34 -12 -45
-10 -17 -10 -23 0 -26 6 -3 12 -20 12 -39 0 -19 -6 -44 -12 -55 -10 -17 -10
-23 0 -26 14 -6 17 -83 2 -83 -5 0 -10 -9 -10 -20 0 -11 5 -20 10 -20 14 0 12
-74 -2 -88 -9 -9 -9 -15 0 -24 16 -16 16 -95 0 -102 -10 -5 -10 -7 0 -12 16
-7 16 -96 0 -112 -9 -9 -9 -15 0 -24 15 -15 16 -102 2 -93 -5 3 -10 -1 -10 -9
0 -8 5 -18 10 -21 14 -8 13 -92 -1 -101 -8 -4 -8 -9 0 -17 15 -15 14 -84 -1
-90 -10 -3 -10 -9 0 -26 6 -11 12 -31 12 -45 0 -13 -6 -28 -12 -33 -8 -5 -419
-9 -1012 -8 l-998 1 -23 28 c-13 17 -28 26 -34 21 -7 -4 -18 -2 -25 4 -7 6
-31 10 -53 9 -45 -1 -63 6 -63 28 0 8 -3 14 -7 15 -5 0 -19 3 -33 5 -14 3 -46
8 -72 11 -38 4 -48 9 -48 23 0 32 -27 49 -65 43 -32 -5 -36 -3 -46 26 -10 29
-15 32 -48 29 -32 -3 -37 0 -50 29 -16 35 -46 52 -64 34 -15 -15 -47 5 -47 30
0 11 -7 22 -15 25 -8 4 -15 14 -15 24 0 32 -27 49 -65 43 -28 -4 -36 -2 -41
13 -3 11 -10 26 -15 34 -5 8 -15 30 -23 48 -8 17 -20 32 -25 32 -6 0 -11 8
-11 18 0 11 -9 27 -19 36 -11 10 -21 28 -23 40 -2 17 -10 21 -38 21 -42 1 -60
10 -60 33 0 10 -9 25 -20 35 -11 9 -20 23 -20 31 0 7 -7 19 -15 26 -8 7 -15
21 -15 31 0 10 -9 23 -21 29 -11 7 -18 18 -15 25 2 7 -4 21 -15 31 -21 19 -25
64 -7 82 9 9 9 15 0 24 -7 7 -12 23 -12 37 0 13 -8 33 -17 44 -13 13 -18 38
-19 88 -1 49 -7 75 -18 88 -9 10 -16 26 -16 37 0 11 -9 25 -20 32 -11 7 -20
19 -20 27 0 8 9 20 20 27 11 7 20 23 20 35 0 12 -9 27 -20 33 -22 12 -28 66
-8 72 9 3 9 12 -1 36 -15 36 -7 102 12 102 7 0 4 5 -5 11 -12 7 -18 22 -18 46
0 22 7 41 18 49 16 13 16 15 0 25 -22 12 -24 71 -4 92 13 13 13 17 1 33 -17
23 -19 58 -4 86 8 14 8 23 0 31 -16 16 -13 69 5 95 14 20 14 23 0 28 -21 8
-21 77 -1 94 14 12 14 15 0 36 -18 27 -19 57 -4 86 8 14 8 23 0 31 -15 15 -14
84 1 89 10 4 10 10 0 32 -16 36 -15 67 4 94 14 20 14 23 0 28 -22 8 -21 73 1
89 16 12 16 14 0 29 -19 20 -22 58 -6 88 8 14 8 23 0 31 -17 17 -14 85 5 95
16 9 16 11 0 33 -22 31 -21 85 2 99 16 10 16 10 0 20 -31 19 -23 71 16 114 30
32 37 35 54 25 13 -8 24 -9 37 -1z m-727 -490 c8 -8 15 -8 27 2 13 11 21 11
36 2 15 -9 23 -9 38 0 24 14 51 -4 51 -34 0 -10 7 -21 15 -24 8 -4 15 -17 15
-30 0 -13 9 -28 20 -34 11 -6 20 -19 20 -30 0 -11 -9 -24 -20 -30 -12 -6 -20
-21 -20 -35 0 -26 -2 -27 -65 -27 -59 -1 -85 10 -86 35 -1 18 -2 19 -6 4 -5
-18 -5 -18 -18 0 -13 17 -14 16 -24 -9 -11 -29 -14 -31 -71 -32 -28 -1 -36 -5
-38 -22 -2 -12 -12 -30 -23 -40 -10 -9 -19 -23 -19 -29 0 -7 -7 -18 -15 -25
-8 -7 -15 -25 -15 -41 0 -16 -7 -32 -17 -38 -17 -10 -17 -12 0 -25 9 -7 17
-27 17 -44 0 -17 6 -32 15 -36 17 -6 21 -76 4 -76 -6 0 -9 -5 -7 -11 2 -6 6
-9 8 -8 3 1 16 -4 30 -11 30 -17 130 -22 148 -8 6 6 12 19 12 29 0 19 40 36
58 25 4 -3 20 1 35 9 40 20 111 -1 115 -35 2 -13 -3 -29 -10 -34 -8 -6 -18
-23 -22 -38 -3 -16 -13 -28 -21 -28 -9 0 -15 -9 -15 -21 0 -31 -28 -49 -56
-37 -16 8 -28 6 -49 -8 -21 -14 -28 -15 -35 -4 -6 10 -11 8 -19 -8 -6 -11 -11
-27 -11 -35 0 -8 -7 -17 -15 -21 -8 -3 -15 -10 -15 -16 0 -6 4 -9 9 -6 5 3 16
-13 25 -35 12 -29 21 -39 32 -35 20 8 64 -22 64 -44 0 -10 7 -23 15 -30 8 -7
15 -23 15 -37 0 -13 -7 -26 -15 -29 -8 -4 -15 -14 -15 -25 0 -24 -25 -35 -79
-34 -39 0 -47 4 -61 30 -13 23 -24 30 -45 28 -40 -3 -65 14 -65 42 0 16 -6 25
-15 25 -9 0 -15 9 -15 24 0 34 -13 39 -97 38 -74 -1 -74 0 -80 28 -9 50 -73
48 -73 -2 0 -10 -7 -21 -15 -24 -8 -4 -15 -17 -15 -29 0 -13 -4 -27 -10 -30
-8 -5 -198 -10 -252 -6 -12 1 -18 9 -18 26 0 14 -8 29 -20 35 -11 6 -20 19
-20 30 0 11 -9 24 -20 30 -11 6 -20 19 -20 29 0 10 -7 24 -15 31 -8 7 -15 20
-15 30 0 10 -7 23 -15 30 -18 15 -20 61 -3 78 9 9 9 15 0 24 -17 17 -15 75 3
82 8 3 15 14 15 24 0 10 9 27 20 37 11 10 20 27 20 37 0 10 7 21 15 24 8 4 15
17 15 30 0 13 9 28 19 34 11 5 21 20 23 32 3 22 7 23 98 23 89 0 95 -1 106
-23 19 -38 30 -45 50 -34 24 13 54 -2 54 -28 0 -23 32 -43 54 -34 20 8 21 48
1 64 -8 7 -15 20 -15 30 0 10 7 23 15 30 8 7 15 21 15 31 0 11 5 19 11 19 5 0
17 16 25 35 8 19 19 35 24 35 6 0 10 11 10 25 0 14 8 29 20 35 11 6 20 21 20
35 0 24 30 42 50 30 17 -11 50 5 50 25 0 24 42 50 69 43 12 -3 21 -1 21 5 0
14 40 52 55 52 6 0 16 -5 23 -12z m-1395 -265 c6 -16 17 -32 24 -36 7 -4 13
-16 13 -26 0 -10 7 -24 15 -31 8 -7 15 -20 15 -30 0 -10 -7 -23 -15 -30 -8 -7
-15 -23 -15 -36 0 -13 -4 -24 -10 -24 -5 0 -14 -9 -20 -20 -8 -16 -7 -23 10
-37 23 -20 27 -61 5 -69 -8 -4 -15 -16 -15 -29 0 -12 7 -28 15 -35 19 -16 19
-49 1 -56 -23 -9 -26 -41 -5 -60 21 -19 25 -64 7 -82 -9 -9 -9 -15 0 -24 7 -7
12 -24 12 -38 0 -14 9 -33 20 -43 11 -9 20 -23 20 -30 0 -7 -9 -20 -20 -30
-11 -9 -20 -23 -20 -30 0 -7 9 -20 20 -30 11 -9 20 -25 20 -36 0 -10 7 -21 15
-25 17 -6 21 -76 5 -76 -5 0 -10 -7 -10 -15 0 -8 5 -15 10 -15 14 0 12 -56 -2
-67 -7 -5 -35 -9 -63 -9 -42 1 -51 5 -62 26 -7 13 -18 29 -26 35 -8 5 -19 19
-24 30 -10 18 -21 20 -135 19 -80 -1 -132 3 -148 11 -18 9 -30 10 -42 2 -20
-13 -48 6 -48 34 0 10 -9 23 -20 29 -11 6 -20 19 -20 29 0 11 -7 21 -15 25 -8
3 -20 17 -25 31 -5 14 -14 25 -20 25 -5 0 -10 15 -10 34 0 21 -6 36 -15 40
-16 6 -21 56 -5 56 5 0 17 15 25 33 8 17 24 46 35 62 11 17 25 42 31 57 6 14
17 29 25 32 8 3 14 14 14 24 0 29 23 43 58 36 28 -6 32 -3 46 31 15 34 19 37
46 32 39 -8 60 1 60 25 0 25 27 47 57 48 27 0 39 18 24 33 -16 16 -14 67 4 73
8 4 15 16 15 29 0 12 -7 28 -15 35 -37 30 -4 73 48 63 23 -5 29 -1 38 26 15
41 54 43 72 4z m-1562 -147 c19 -2 41 -6 47 -10 7 -4 20 -3 29 3 23 13 53 -4
53 -30 0 -11 7 -22 15 -25 8 -4 15 -18 15 -33 0 -43 -30 -52 -173 -53 -93 -1
-127 -4 -127 -13 0 -7 -11 -20 -25 -29 -30 -20 -32 -37 -5 -61 24 -22 26 -52
5 -76 -14 -15 -14 -18 -1 -31 8 -8 16 -28 18 -44 3 -28 5 -29 63 -31 33 -1 65
3 72 9 7 5 17 7 23 3 6 -4 18 -1 26 6 12 10 20 9 41 -2 20 -10 27 -11 30 -2 6
17 53 -26 53 -48 0 -9 10 -23 21 -31 33 -21 18 -58 -24 -58 -52 0 -107 -12
-101 -21 3 -5 -2 -6 -10 -3 -11 4 -16 0 -16 -10 0 -20 -20 -29 -69 -30 -29 -1
-37 -5 -39 -24 -2 -12 -12 -27 -23 -32 -11 -6 -19 -21 -19 -35 0 -14 -4 -25
-9 -25 -19 0 -23 -41 -7 -59 9 -10 16 -25 16 -34 0 -9 9 -21 20 -27 11 -6 20
-21 20 -35 0 -30 32 -42 61 -22 11 8 29 12 40 10 15 -4 22 0 26 16 5 21 21 28
78 33 21 2 31 9 34 23 5 30 31 45 58 32 16 -7 26 -7 37 2 17 15 53 -3 62 -31
3 -10 10 -18 15 -18 5 0 9 -13 9 -29 0 -35 -31 -61 -72 -61 -18 0 -28 -5 -28
-15 0 -17 -50 -45 -80 -45 -11 0 -20 -7 -20 -15 0 -20 -35 -37 -64 -29 -13 3
-35 0 -48 -7 -12 -7 -31 -12 -41 -10 -12 1 -20 -5 -24 -18 -7 -26 -26 -30
-133 -28 -82 2 -85 3 -88 27 -2 14 -10 29 -18 33 -17 10 -18 68 -1 86 10 11
10 14 0 18 -7 3 -13 18 -13 34 0 17 -8 36 -20 46 -11 10 -20 23 -20 30 0 7 9
22 20 33 11 11 20 25 20 30 0 6 -9 18 -20 27 -11 10 -20 26 -20 36 0 9 -7 20
-15 23 -8 4 -15 15 -15 25 0 11 -9 27 -20 36 -11 10 -20 24 -20 33 0 9 9 23
20 33 11 9 20 25 20 36 0 10 7 21 15 25 8 3 15 14 15 24 0 11 -7 25 -15 32 -8
7 -15 21 -15 31 0 10 -9 24 -20 31 -11 7 -20 20 -20 28 0 9 9 23 20 33 11 9
20 24 20 32 0 8 -9 20 -20 27 -23 15 -27 56 -5 64 8 4 15 15 15 25 0 10 9 24
20 31 11 7 20 23 20 35 0 12 9 27 19 33 11 5 21 20 23 32 3 20 9 23 45 23 23
0 45 3 48 7 4 4 16 3 26 -3 14 -7 25 -6 41 5 14 10 33 13 57 9 20 -3 52 -6 72
-7z m467 -258 c7 -7 12 -20 12 -30 0 -10 7 -21 15 -24 17 -7 21 -64 5 -80 -5
-5 -6 -15 0 -24 7 -11 15 -8 44 20 20 19 36 43 36 52 0 10 9 22 20 28 12 6 20
21 20 35 0 28 -3 27 65 30 55 2 75 -8 75 -37 0 -10 7 -21 15 -24 8 -4 15 -14
15 -24 0 -9 9 -25 20 -35 11 -10 20 -27 20 -37 0 -10 7 -21 15 -24 8 -4 15
-14 15 -24 0 -9 9 -25 20 -35 20 -18 28 -75 11 -75 -5 0 -12 -7 -15 -16 -3 -8
-2 -13 3 -10 11 7 21 -17 21 -49 0 -12 7 -28 15 -35 20 -17 19 -49 -2 -72 -14
-16 -15 -22 -5 -36 7 -9 17 -29 23 -44 6 -14 17 -29 25 -32 23 -9 16 -40 -16
-68 -16 -14 -30 -22 -30 -17 0 17 -20 9 -42 -16 -32 -37 -78 -28 -78 16 0 9
-7 19 -15 23 -8 3 -15 16 -15 29 0 14 -9 31 -21 39 -18 11 -20 20 -14 46 3 18
11 32 16 32 5 0 9 5 9 11 0 6 -6 9 -12 6 -9 -3 -14 8 -16 32 -1 20 -9 41 -17
47 -19 14 -19 53 0 60 22 9 19 61 -4 67 -27 7 -51 -11 -51 -37 0 -13 -7 -26
-15 -30 -9 -3 -15 -18 -15 -35 0 -16 -5 -33 -10 -36 -7 -4 -7 -12 0 -25 16
-30 12 -65 -10 -85 -11 -10 -20 -26 -20 -35 0 -10 -7 -20 -15 -24 -8 -3 -15
-14 -15 -24 0 -29 -20 -39 -75 -37 -68 3 -65 2 -65 29 0 14 -10 30 -25 40 -30
20 -31 35 -4 64 18 20 19 24 5 38 -21 20 -20 63 1 86 15 17 15 19 0 36 -10 10
-17 30 -17 44 0 14 -6 28 -14 31 -8 3 -16 24 -18 46 -3 31 0 40 9 37 15 -6 18
10 3 19 -5 3 -10 26 -10 51 0 24 5 44 10 44 6 0 10 6 10 14 0 7 11 21 25 30
14 9 25 25 25 35 0 29 37 40 58 19z m2176 -604 c9 -3 16 -12 16 -19 0 -17 90
-46 118 -38 26 6 52 -12 52 -38 0 -11 5 -19 10 -19 6 0 16 -12 23 -27 6 -16
18 -34 25 -42 7 -7 12 -23 10 -35 -2 -16 -16 -24 -68 -38 -36 -9 -66 -17 -68
-18 -2 0 0 5 3 10 3 6 -1 10 -10 10 -10 0 -13 -5 -9 -12 4 -7 -3 -4 -15 7 -14
12 -37 19 -64 20 -34 0 -42 4 -45 20 -7 37 -22 45 -73 40 -27 -2 -54 -7 -59
-10 -15 -9 -12 -42 4 -48 8 -3 16 -18 18 -34 3 -24 7 -28 38 -29 57 -2 58 -3
72 -31 12 -26 17 -28 78 -28 71 -1 90 -7 90 -33 0 -27 36 -45 59 -30 23 14 51
-3 51 -32 0 -10 7 -23 15 -30 18 -15 19 -53 3 -81 -10 -17 -10 -23 0 -26 17
-7 15 -70 -3 -77 -8 -3 -15 -14 -15 -26 0 -11 -9 -25 -20 -32 -11 -7 -20 -20
-20 -29 0 -9 -7 -22 -15 -29 -8 -7 -15 -21 -15 -31 0 -26 -26 -35 -95 -33 -64
1 -85 -8 -85 -37 0 -21 3 -20 -100 -23 -84 -2 -110 6 -110 34 0 19 -32 36 -50
25 -17 -11 -50 5 -50 24 0 10 -9 26 -20 36 -22 20 -26 45 -9 62 6 6 17 22 23
34 15 30 53 44 99 35 27 -5 38 -13 46 -36 12 -35 35 -47 55 -31 11 9 19 9 34
0 16 -10 25 -9 51 10 17 13 30 19 29 14 -7 -20 18 -14 29 7 6 13 19 27 27 32
20 11 21 44 1 52 -8 3 -15 16 -15 30 0 32 -14 40 -62 37 -29 -1 -40 2 -44 16
-14 45 -19 47 -95 48 -68 0 -74 2 -77 22 -5 33 -28 48 -55 36 -26 -12 -57 4
-57 29 0 8 -9 23 -21 34 -21 19 -19 60 4 77 9 6 9 10 0 14 -19 7 -17 82 2 89
8 4 15 16 15 28 0 12 9 27 19 33 11 7 21 23 23 35 3 20 9 23 43 23 22 0 47 5
55 10 8 5 22 8 31 7 9 -2 24 9 33 23 14 22 24 25 70 25 30 0 61 -3 70 -6z
m-683 -98 c6 4 15 0 20 -7 5 -9 26 -14 56 -14 43 0 48 -2 51 -25 2 -13 13 -30
23 -38 10 -7 19 -21 19 -30 0 -10 9 -23 20 -30 11 -7 20 -18 20 -26 0 -8 7
-16 15 -20 9 -3 15 -18 15 -36 0 -18 6 -33 15 -36 8 -4 15 -16 15 -29 0 -12
-7 -28 -15 -35 -8 -7 -15 -18 -15 -26 0 -7 -9 -21 -19 -31 -10 -10 -21 -27
-23 -38 -2 -14 -12 -20 -33 -22 -17 0 -38 -2 -47 -2 -11 -1 -18 -9 -18 -20 0
-30 -29 -53 -57 -46 -29 7 -53 -9 -53 -35 0 -10 -7 -20 -15 -24 -8 -3 -15 -16
-15 -30 0 -30 33 -44 57 -24 13 10 17 10 20 1 5 -15 39 -17 48 -3 4 7 12 7 25
0 30 -16 40 -12 56 25 18 44 60 50 70 10 3 -13 12 -29 20 -36 29 -24 7 -100
-33 -118 -15 -7 -23 -19 -23 -36 0 -14 -6 -25 -12 -26 -61 -5 -307 -3 -320 3
-9 4 -18 18 -20 30 -2 19 -10 23 -38 24 -56 2 -60 3 -60 18 0 7 -9 25 -20 39
-11 14 -20 32 -20 41 0 8 -6 19 -13 23 -7 4 -18 20 -24 36 -7 15 -17 27 -23
27 -16 0 -12 46 5 60 8 7 15 20 15 30 0 10 -7 23 -15 30 -8 7 -15 23 -15 35 0
13 7 25 15 29 19 7 19 40 0 56 -16 13 -19 94 -4 84 4 -2 10 0 13 5 3 5 -1 11
-9 15 -22 8 -19 60 5 81 11 10 20 26 20 36 0 20 41 36 60 24 15 -9 40 13 40
36 0 11 9 20 23 23 48 10 93 17 114 16 12 0 25 5 28 10 4 7 13 6 26 0 11 -6
24 -8 30 -4z m-867 -22 c9 -3 16 -14 16 -24 0 -24 15 -33 59 -34 33 -1 36 -3
39 -35 2 -18 -1 -38 -7 -44 -17 -17 -13 -24 14 -24 14 0 25 5 25 13 0 7 9 18
20 24 11 6 20 19 20 29 0 26 23 42 57 39 36 -2 53 8 53 33 0 20 2 21 65 24 60
3 75 -3 75 -30 0 -12 7 -25 15 -29 8 -3 15 -17 15 -31 0 -14 -7 -28 -15 -31
-8 -4 -15 -17 -15 -30 0 -14 -6 -27 -14 -30 -8 -3 -19 -19 -25 -35 -5 -16 -16
-29 -23 -30 -7 0 -26 -2 -43 -2 -23 -2 -31 -7 -33 -25 -2 -13 -10 -26 -18 -29
-8 -3 -14 -11 -14 -18 0 -7 -9 -24 -20 -38 -11 -14 -20 -31 -20 -39 0 -7 -9
-22 -21 -32 -16 -13 -20 -25 -15 -47 4 -19 2 -28 -6 -26 -7 1 -14 -7 -16 -17
-3 -13 0 -17 10 -13 11 4 13 -2 10 -23 -3 -19 3 -35 17 -49 12 -12 21 -26 21
-32 0 -6 9 -22 19 -35 19 -25 18 -62 -2 -76 -7 -4 -7 -11 0 -20 21 -27 22 -59
2 -79 -10 -10 -19 -28 -19 -38 0 -25 -17 -29 -120 -27 -82 1 -85 2 -88 25 -2
13 -14 32 -25 42 l-22 17 23 31 c27 37 28 52 2 74 -24 20 -25 35 -4 65 14 20
14 24 0 38 -9 8 -16 26 -16 40 0 14 -7 27 -15 30 -8 4 -15 17 -15 30 0 14 7
27 15 30 8 4 15 18 15 34 0 16 -7 30 -15 34 -17 6 -20 57 -5 72 12 12 -16 96
-36 107 -8 4 -14 14 -14 21 0 8 -7 19 -15 26 -30 25 -11 105 34 136 12 9 21
24 21 34 0 24 24 35 54 24z m-2214 -59 c17 -9 30 -22 30 -30 0 -8 4 -15 9 -15
5 0 12 -12 15 -26 5 -19 1 -33 -13 -48 -12 -12 -21 -34 -21 -48 0 -15 -6 -28
-12 -31 -10 -3 -10 -9 -1 -28 18 -36 22 -98 6 -92 -7 3 -13 -2 -13 -11 0 -9 5
-16 10 -16 6 0 10 -15 10 -34 0 -19 4 -38 10 -41 5 -3 68 -7 140 -8 l130 -2 0
26 c0 14 9 34 20 44 11 10 20 26 20 35 0 10 7 23 15 30 8 7 15 18 15 25 0 7 7
18 16 26 12 10 20 10 35 1 15 -9 23 -9 38 0 15 9 23 9 35 -1 9 -8 16 -19 16
-26 0 -6 9 -20 20 -30 24 -21 26 -58 5 -75 -19 -16 -19 -29 -1 -36 19 -7 86
59 86 85 0 10 7 21 15 25 8 3 15 14 15 24 0 10 9 27 20 37 11 10 20 26 20 37
0 10 3 18 8 19 4 0 47 1 96 3 l89 2 13 -33 c8 -17 18 -34 24 -38 5 -3 10 -15
10 -26 0 -11 11 -24 24 -30 13 -6 26 -20 29 -30 6 -23 47 -14 47 11 0 10 9 22
20 25 11 3 20 15 20 26 0 10 9 24 20 31 11 7 20 20 20 28 0 26 21 39 52 33 19
-4 35 0 47 11 14 13 21 14 26 6 5 -9 10 -9 14 -1 10 16 71 -25 71 -48 0 -10 7
-24 15 -31 8 -7 15 -19 15 -26 0 -8 9 -22 20 -31 11 -10 20 -24 20 -33 0 -9
-9 -23 -20 -33 -11 -9 -20 -23 -20 -32 0 -8 9 -19 20 -25 11 -6 20 -19 20 -28
0 -10 -9 -25 -20 -35 -11 -9 -20 -21 -20 -27 0 -5 9 -19 20 -30 24 -24 26 -57
4 -82 -16 -16 -16 -18 0 -24 21 -8 22 -77 1 -94 -8 -7 -15 -16 -15 -21 0 -5 7
-9 15 -9 11 0 15 -11 15 -35 0 -22 -6 -38 -15 -41 -8 -4 -15 -16 -15 -29 0
-12 7 -28 15 -35 21 -18 19 -47 -5 -60 -11 -6 -20 -19 -20 -30 0 -26 -39 -53
-57 -38 -15 12 -21 8 -37 -24 -7 -14 -22 -24 -38 -26 -23 -3 -30 2 -42 32 -8
20 -20 36 -25 36 -6 0 -11 16 -11 36 0 19 4 33 8 30 4 -2 9 4 9 15 1 10 -2 19
-8 19 -17 0 -9 57 11 75 11 10 20 31 20 47 0 15 5 28 10 28 6 0 10 7 10 15 0
8 -4 15 -10 15 -5 0 -10 14 -10 30 0 18 -8 37 -20 47 -24 21 -26 51 -5 59 8 4
15 16 15 29 0 12 -7 28 -15 35 -8 7 -15 25 -15 41 0 19 5 29 15 29 8 0 15 7
15 15 0 23 -47 19 -53 -5 -3 -11 -12 -20 -21 -20 -9 0 -18 -11 -22 -25 -3 -13
-12 -29 -20 -36 -8 -6 -14 -22 -14 -36 0 -13 -7 -31 -15 -40 -14 -14 -14 -17
0 -32 21 -24 19 -58 -5 -71 -11 -6 -20 -21 -20 -34 0 -13 -7 -26 -15 -30 -8
-3 -15 -14 -15 -24 0 -10 -9 -29 -20 -42 -11 -13 -20 -29 -20 -36 0 -35 -114
-55 -174 -30 -30 12 -36 20 -36 45 0 18 7 34 17 39 16 9 16 11 0 27 -20 19
-23 91 -4 98 9 4 9 8 -1 23 -7 11 -17 31 -23 47 -12 30 -19 33 -36 16 -9 -9
-5 -18 13 -36 31 -31 30 -35 -6 -56 -20 -12 -30 -26 -30 -41 0 -13 -7 -26 -15
-30 -8 -3 -15 -14 -15 -26 0 -11 -9 -25 -20 -32 -11 -7 -20 -23 -20 -36 0 -12
-6 -25 -14 -28 -8 -3 -16 -19 -20 -35 l-6 -30 -67 3 c-59 3 -69 6 -78 26 -5
12 -13 22 -17 22 -5 0 -8 13 -8 29 0 16 -7 34 -15 41 -8 7 -15 20 -15 30 0 9
-9 25 -20 35 -11 10 -20 25 -20 34 0 9 9 24 20 34 11 9 20 21 20 25 0 5 -9 17
-20 27 -21 19 -28 75 -10 75 6 0 10 7 10 15 0 14 -12 20 -33 16 -4 -1 -17 4
-28 9 -26 15 -59 3 -59 -20 0 -28 -17 -34 -100 -34 -69 -1 -75 -3 -78 -23 -2
-12 -10 -27 -18 -33 -18 -16 -18 -56 1 -64 17 -6 21 -76 5 -76 -5 0 -10 -7
-10 -15 0 -8 5 -15 10 -15 6 0 10 -16 10 -35 0 -22 6 -38 14 -41 23 -9 27 -34
11 -68 -13 -26 -14 -32 -2 -41 8 -5 12 -16 9 -23 -2 -8 5 -27 17 -43 22 -29
29 -79 11 -79 -5 0 -10 -9 -10 -20 0 -11 5 -20 10 -20 6 0 10 -16 10 -35 0
-23 5 -35 14 -35 23 0 27 -40 5 -58 -10 -9 -19 -26 -19 -38 0 -12 -7 -24 -15
-28 -8 -3 -15 -14 -15 -24 0 -50 -54 -56 -74 -8 -8 18 -19 37 -25 40 -6 4 -11
15 -11 26 0 10 -7 20 -15 24 -8 3 -15 15 -15 26 0 11 -9 28 -20 37 -24 21 -26
51 -5 59 8 4 15 18 15 34 0 16 -7 30 -15 34 -8 3 -15 14 -15 25 0 11 -4 23
-10 26 -5 3 -15 15 -20 25 -8 16 -6 23 10 37 25 22 25 44 0 66 -24 20 -25 45
-4 76 16 22 16 24 0 33 -9 5 -16 22 -16 39 0 17 -6 32 -15 35 -8 4 -15 17 -15
30 0 14 -6 27 -14 30 -8 3 -19 19 -25 35 -15 44 -71 34 -71 -13 0 -19 -1 -19
-65 -22 -50 -2 -75 9 -75 33 0 10 -7 24 -15 31 -8 7 -15 21 -15 32 0 10 7 21
15 24 8 4 15 14 15 24 0 9 9 25 19 34 16 15 22 15 39 5 25 -16 49 0 54 34 2
18 10 22 38 23 57 2 60 3 60 22 0 11 9 27 20 37 13 12 20 31 20 57 0 24 4 37
10 33 6 -3 10 1 10 9 0 9 -4 16 -10 16 -6 0 -10 25 -9 58 0 41 3 51 9 37 8
-19 9 -19 9 3 1 12 -3 22 -9 22 -14 0 -12 74 2 88 9 9 9 15 0 24 -7 7 -12 26
-12 44 0 35 18 48 55 38 13 -3 32 -1 42 5 26 15 59 13 93 -4z m1978 -23 c2
-12 12 -28 23 -35 10 -6 19 -19 19 -28 0 -9 9 -24 20 -34 11 -10 20 -24 20
-30 0 -7 7 -18 15 -25 18 -15 19 -53 3 -80 -10 -15 -10 -22 0 -32 14 -14 16
-88 2 -88 -5 0 -10 -9 -10 -20 0 -11 5 -20 10 -20 18 0 11 -56 -10 -75 -11
-10 -20 -28 -20 -40 0 -11 -5 -26 -12 -33 -9 -9 -9 -15 0 -24 7 -7 12 -22 12
-35 0 -13 9 -31 20 -40 11 -10 20 -25 20 -34 0 -9 -9 -24 -20 -34 -11 -10 -20
-31 -20 -46 0 -15 -4 -31 -10 -34 -14 -9 -12 -25 3 -25 10 0 12 -10 8 -37 l-6
-38 -55 -1 c-60 -2 -90 9 -90 31 0 11 -13 13 -57 10 -34 -2 -64 2 -72 8 -8 7
-47 12 -90 12 -68 0 -76 2 -79 20 -5 28 -31 46 -59 39 -28 -7 -53 11 -53 38 0
10 -7 21 -15 24 -10 4 -15 20 -15 51 0 29 4 42 11 37 8 -5 8 -1 0 14 -16 29
-14 67 4 82 8 7 15 21 15 31 0 10 9 23 20 29 11 6 20 20 20 31 0 11 7 22 15
25 8 4 15 14 15 24 0 29 29 52 57 45 29 -7 53 9 53 36 0 11 6 19 13 20 6 0 30
2 52 4 22 2 50 4 63 5 14 0 21 4 16 11 -4 7 -1 10 7 7 8 -3 22 -1 32 4 12 6
17 5 17 -7 0 -8 5 -15 11 -15 5 0 7 5 4 10 -3 6 -1 10 5 10 7 0 10 6 7 13 -5
13 17 40 26 31 2 -3 7 2 11 11 7 20 -23 33 -35 14 -5 -8 -9 -9 -9 -3 0 6 -11
16 -24 23 -19 11 -28 11 -47 0 -13 -7 -30 -12 -37 -11 -7 2 -26 -11 -43 -27
-24 -25 -34 -29 -49 -21 -26 14 -33 13 -58 -10 -19 -18 -22 -19 -22 -4 0 13
-3 14 -15 4 -12 -10 -20 -9 -40 4 -14 9 -25 25 -25 35 0 10 -9 26 -20 36 -11
10 -20 24 -20 31 0 19 37 36 61 29 24 -8 49 10 49 35 0 20 43 42 65 34 9 -4
18 1 22 12 13 36 33 41 162 40 123 -1 126 -1 129 -24z m-4180 -165 c6 -5 12
-17 12 -28 0 -10 5 -19 11 -19 5 0 16 -15 24 -34 8 -19 19 -37 25 -41 5 -3 10
-14 10 -23 0 -10 9 -25 20 -35 11 -9 20 -21 20 -27 0 -5 -9 -19 -20 -30 -24
-24 -26 -48 -5 -56 8 -3 19 -21 25 -40 6 -19 16 -34 21 -34 15 0 10 -36 -6
-50 -21 -18 -19 -53 5 -68 11 -7 20 -19 20 -27 0 -8 -9 -19 -20 -25 -12 -6
-20 -21 -20 -35 0 -14 8 -29 20 -35 26 -14 28 -70 3 -70 -15 0 -16 -2 -3 -10
13 -8 13 -10 0 -10 -11 0 -11 -3 -2 -12 16 -16 15 -85 0 -91 -10 -3 -10 -9 0
-26 16 -28 15 -70 -2 -77 -8 -3 -16 -18 -19 -34 l-6 -28 -97 0 c-96 1 -96 1
-106 29 -5 15 -16 30 -24 33 -8 3 -14 14 -14 24 0 10 -9 27 -20 37 -11 10 -20
24 -20 31 0 7 -6 17 -14 21 -8 4 -16 19 -18 33 -2 20 -9 25 -33 25 -37 0 -46
-30 -16 -51 26 -19 27 -36 1 -59 -23 -21 -26 -53 -6 -61 23 -9 27 -34 11 -67
-9 -18 -11 -33 -6 -37 13 -8 21 -54 11 -69 -6 -11 -121 -18 -186 -12 -21 2
-25 33 -9 65 13 25 13 33 3 41 -7 5 -14 23 -15 39 -1 17 -9 34 -18 38 -21 12
-19 41 4 62 21 19 18 45 -6 59 -18 11 -17 42 2 57 8 7 15 23 15 35 0 13 -7 25
-15 29 -17 6 -21 76 -5 76 6 0 10 7 10 15 0 8 -4 15 -10 15 -5 0 -8 40 -8 92
2 74 6 97 19 112 18 19 13 46 -11 61 -18 11 -11 42 13 57 12 8 46 14 75 13 28
0 52 4 52 8 0 4 14 -2 30 -15 17 -12 30 -29 30 -39 0 -9 7 -22 15 -29 8 -7 15
-19 15 -26 0 -8 9 -22 20 -31 11 -10 20 -25 20 -34 0 -9 7 -22 15 -29 8 -7 15
-19 15 -26 0 -8 9 -22 20 -31 11 -10 20 -24 20 -33 0 -17 61 -80 78 -80 11 0
10 25 -1 36 -4 4 -7 20 -7 36 0 16 -6 31 -15 34 -8 4 -15 16 -15 29 0 12 7 28
15 35 20 17 19 37 -5 67 -11 14 -20 31 -20 38 0 7 -7 15 -15 19 -17 6 -21 66
-5 66 6 0 10 9 10 20 0 11 -4 20 -10 20 -5 0 -10 13 -10 29 0 16 -7 34 -15 41
-8 7 -15 23 -15 35 0 13 7 25 15 29 8 3 15 14 15 24 0 10 5 23 10 28 12 12 99
13 118 1z m378 -55 c46 -25 73 -106 39 -118 -8 -4 -15 -14 -15 -24 0 -26 -27
-50 -56 -50 -13 0 -24 -5 -24 -10 0 -6 -11 -3 -24 6 -14 8 -35 15 -48 14 -54
-5 -58 -2 -58 40 0 22 5 40 10 40 6 0 10 7 10 15 0 8 -4 15 -10 15 -16 0 -11
56 6 71 11 9 20 10 33 2 13 -8 24 -7 42 2 27 15 64 14 95 -3z m851 -3 c8 -8
16 -7 31 2 25 15 52 -2 52 -33 0 -10 7 -21 15 -24 8 -4 15 -16 15 -29 0 -12
-7 -28 -15 -35 -8 -7 -15 -20 -15 -30 0 -10 7 -23 15 -30 8 -7 15 -23 15 -35
0 -13 -7 -25 -15 -29 -8 -3 -15 -16 -15 -28 0 -13 -7 -34 -16 -46 -14 -20 -14
-23 0 -28 9 -4 16 -18 16 -34 0 -56 60 -65 68 -11 2 12 10 25 18 28 8 3 14 13
14 23 0 9 9 25 19 34 16 15 22 15 39 5 25 -16 49 0 54 34 3 20 9 22 68 22 61
0 65 -1 68 -24 2 -13 -2 -35 -10 -49 -10 -20 -10 -26 0 -29 6 -3 12 -17 12
-33 0 -15 7 -33 15 -40 8 -7 15 -19 15 -26 0 -8 9 -22 20 -31 11 -10 20 -27
20 -39 0 -12 7 -24 15 -28 9 -3 15 -18 15 -35 0 -16 -6 -31 -15 -35 -8 -3 -15
-12 -15 -19 0 -8 7 -20 15 -27 8 -7 15 -21 15 -31 0 -11 9 -27 20 -36 11 -10
20 -23 20 -30 0 -7 -9 -22 -20 -33 -25 -25 -25 -34 1 -59 11 -10 19 -27 17
-38 -3 -16 -14 -18 -103 -18 -95 0 -100 1 -103 21 -2 12 -12 30 -23 40 -24 21
-25 60 -2 73 17 9 17 10 0 28 -9 11 -17 31 -17 45 0 14 -7 28 -15 32 -20 7
-19 52 1 60 10 4 14 15 12 33 -3 26 -6 28 -53 28 -68 1 -75 -3 -75 -36 0 -17
-6 -32 -15 -35 -17 -7 -21 -34 -5 -34 16 0 12 -70 -5 -76 -8 -4 -15 -17 -15
-30 0 -13 -5 -24 -11 -24 -5 0 -17 -16 -25 -35 -13 -32 -18 -35 -52 -35 -20 1
-44 1 -52 0 -8 0 -37 1 -65 3 -27 2 -56 -1 -62 -6 -18 -13 -16 -46 2 -53 17
-7 21 -74 5 -74 -5 0 -10 -9 -10 -20 0 -11 5 -20 10 -20 14 0 12 -74 -2 -88
-9 -9 -9 -15 0 -24 16 -16 15 -63 -1 -76 -7 -6 -26 -10 -42 -9 -23 2 -32 -4
-43 -25 -7 -16 -18 -28 -25 -29 -13 0 -223 0 -244 1 -7 0 -13 8 -13 19 0 27
-24 43 -54 35 -31 -7 -56 10 -56 38 0 10 -7 21 -15 24 -16 7 -22 74 -6 74 5 0
12 11 15 24 13 51 146 48 146 -3 0 -26 25 -44 50 -36 32 10 60 -3 60 -30 0
-12 7 -26 16 -29 22 -9 54 11 54 35 0 11 7 22 15 25 8 4 15 17 15 30 0 14 -7
27 -15 30 -19 8 -21 80 -2 87 10 4 10 7 0 18 -7 7 -13 25 -13 41 0 15 -7 31
-17 37 -14 7 -18 26 -19 92 -2 63 -6 85 -18 91 -9 5 -16 17 -16 27 0 31 -26
46 -56 32 -14 -6 -32 -11 -41 -11 -9 0 -26 -11 -39 -25 -13 -14 -32 -25 -43
-25 -21 0 -51 25 -51 41 0 6 -8 9 -18 7 -25 -4 -72 29 -72 51 0 10 -7 21 -15
25 -8 3 -15 14 -15 24 0 10 -9 27 -20 37 -24 22 -27 70 -4 79 16 6 16 8 0 24
-18 21 -22 72 -5 72 5 0 17 16 25 35 8 19 19 35 24 35 6 0 10 11 10 25 0 15 8
29 23 36 12 7 25 17 29 23 5 8 8 7 8 -1 0 -7 7 -13 15 -13 8 0 15 6 15 14 0
22 28 39 68 41 52 3 52 3 52 24 0 26 17 35 61 33 22 -2 41 3 49 13 7 8 17 12
23 8 14 -8 39 -13 87 -18 19 -1 40 -3 47 -4 6 0 13 -13 15 -28 3 -24 8 -28 33
-28 26 0 31 4 35 33 5 33 52 92 74 92 7 0 17 -5 23 -11z m8963 -269 c0 -5 -5
-10 -11 -10 -5 0 -7 5 -4 10 3 6 8 10 11 10 2 0 4 -4 4 -10z m-9879 -33 c8 8
18 8 35 0 18 -8 28 -7 36 1 15 15 48 -3 48 -27 0 -10 -7 -24 -15 -31 -8 -7
-15 -28 -15 -46 0 -24 -5 -34 -16 -34 -14 0 -14 -2 0 -22 22 -30 21 -94 0
-102 -16 -6 -16 -8 0 -24 21 -24 21 -81 0 -97 -15 -10 -15 -13 0 -27 9 -9 16
-28 16 -41 0 -14 7 -30 15 -37 8 -7 15 -27 15 -44 0 -18 6 -38 13 -46 6 -8 2
-6 -10 4 -23 19 -23 19 -23 -3 0 -32 -63 -93 -92 -89 -15 2 -24 11 -26 25 -2
12 -14 29 -28 37 -13 9 -24 23 -24 32 0 8 -4 12 -10 9 -6 -4 -10 8 -10 29 0
26 -7 39 -27 54 l-27 19 27 25 c34 32 35 61 2 76 -31 15 -35 58 -5 67 22 7 26
20 10 30 -14 9 -12 88 3 104 10 11 10 14 0 18 -18 6 -16 68 2 83 8 7 15 19 15
28 0 25 31 41 57 29 17 -7 27 -7 34 0z"/>
<path d="M8654 8427 c-20 -11 -18 -31 6 -52 21 -19 27 -55 10 -55 -6 0 -15
-10 -19 -22 -7 -17 -4 -28 10 -44 25 -26 24 -51 -1 -64 -11 -6 -20 -17 -20
-25 0 -9 9 -23 20 -32 11 -10 20 -25 20 -35 0 -9 -9 -22 -20 -28 -11 -6 -20
-19 -20 -30 0 -11 9 -24 20 -30 11 -6 20 -19 20 -29 0 -10 -9 -26 -20 -36 -11
-10 -20 -22 -20 -27 0 -4 9 -16 20 -25 11 -10 20 -25 20 -34 0 -9 -9 -24 -20
-34 -11 -10 -20 -22 -20 -27 0 -4 9 -16 20 -25 26 -22 25 -41 -1 -69 -17 -18
-19 -26 -10 -43 7 -12 16 -21 21 -21 18 0 10 -45 -10 -63 -11 -9 -20 -21 -20
-27 0 -6 9 -18 20 -27 21 -18 27 -53 10 -53 -5 0 -14 -9 -19 -19 -8 -14 -6
-25 9 -44 25 -32 25 -48 0 -70 -11 -9 -20 -21 -20 -27 0 -6 9 -18 20 -27 11
-10 20 -24 20 -33 0 -9 -9 -23 -20 -33 -11 -9 -20 -21 -20 -27 0 -6 9 -18 20
-27 25 -22 25 -38 0 -70 -15 -19 -17 -30 -9 -44 5 -10 14 -19 19 -19 16 0 11
-58 -6 -68 -14 -8 -14 -10 0 -21 9 -8 16 -26 16 -42 0 -16 9 -38 21 -50 20
-20 19 -59 -2 -67 -13 -5 -11 -30 2 -34 5 -2 12 -16 13 -31 2 -15 11 -36 20
-46 9 -9 16 -25 16 -35 0 -9 7 -19 15 -22 8 -4 15 -12 15 -19 0 -7 9 -24 20
-38 11 -14 20 -32 20 -41 0 -8 9 -20 20 -26 23 -12 19 -48 -6 -63 -21 -12 -17
-45 6 -57 11 -6 20 -20 20 -30 0 -11 9 -25 20 -32 11 -7 20 -18 20 -24 0 -19
25 -35 37 -23 13 13 63 -26 63 -51 0 -10 7 -20 15 -24 8 -3 15 -14 15 -24 0
-28 24 -44 54 -36 30 7 56 -9 56 -36 0 -10 7 -20 15 -24 8 -3 15 -14 15 -24 0
-28 23 -43 57 -36 31 6 48 -6 55 -41 3 -15 12 -20 38 -21 56 -1 59 -3 62 -31
3 -26 7 -28 45 -28 46 -1 59 -9 65 -40 3 -17 12 -20 73 -22 85 -3 95 -7 95
-32 0 -23 28 -34 63 -26 14 4 28 2 31 -4 5 -7 15 -7 32 1 18 8 28 8 35 1 8 -8
18 -8 35 -1 17 8 27 8 38 -1 11 -10 19 -9 35 1 15 9 23 10 32 1 8 -8 18 -9 35
0 18 7 28 7 35 0 8 -8 18 -8 35 0 18 7 28 7 35 0 8 -8 18 -8 35 0 18 7 28 7
35 0 8 -8 18 -8 35 0 18 7 28 7 35 0 8 -8 18 -8 35 0 18 7 28 7 35 0 8 -8 18
-8 35 0 18 7 28 7 35 0 8 -8 18 -8 35 -1 17 8 27 8 38 -1 11 -10 19 -9 35 1
15 9 23 10 32 1 8 -8 18 -9 35 -1 17 8 27 8 38 -1 11 -10 19 -9 35 1 15 9 23
10 32 1 8 -8 18 -9 35 -1 17 8 27 8 38 -1 11 -10 19 -9 34 0 16 10 23 10 35 0
12 -10 20 -10 36 1 15 9 23 10 32 1 8 -8 18 -9 35 -1 17 8 27 8 38 -1 11 -10
19 -9 34 0 16 10 23 10 35 0 12 -10 20 -10 36 1 15 9 23 10 32 1 8 -8 18 -9
35 -1 17 8 27 8 38 -1 11 -10 19 -9 34 0 16 10 23 10 35 0 12 -10 19 -10 35 0
16 10 23 10 36 0 14 -12 20 -11 37 4 11 10 18 26 17 35 -2 9 3 25 11 34 11 13
11 20 3 28 -17 17 -15 73 3 88 8 7 15 18 15 25 0 7 -7 18 -15 25 -8 7 -15 23
-15 35 0 12 7 28 15 35 21 17 19 42 -4 62 -20 17 -19 49 2 76 7 9 7 16 -1 24
-15 15 -16 88 -2 88 14 0 13 27 -1 32 -7 2 -12 24 -12 48 0 24 5 46 12 48 14
5 15 32 1 32 -13 0 -13 87 -1 94 5 4 3 19 -5 35 -15 31 -11 56 12 65 18 7 18
40 -1 56 -8 7 -15 23 -15 37 0 13 7 26 15 29 8 4 15 16 15 29 0 13 -7 25 -15
29 -8 3 -15 16 -15 29 0 14 7 30 15 37 8 7 15 21 15 32 0 10 -7 21 -15 24 -8
4 -15 16 -15 29 0 12 7 28 15 35 8 7 15 21 15 32 0 10 -7 21 -15 24 -8 4 -15
16 -15 29 0 12 7 28 15 35 8 7 15 21 15 32 0 10 -7 21 -15 24 -19 8 -21 80 -2
87 9 3 9 7 1 18 -7 8 -15 28 -18 46 -4 17 -14 34 -22 37 -17 7 -19 57 -2 74 9
9 9 15 0 24 -7 7 -12 25 -12 40 0 16 -6 31 -14 34 -8 3 -18 19 -21 36 -4 16
-13 32 -21 35 -8 3 -14 15 -14 27 0 12 -9 27 -20 34 -11 7 -20 21 -20 32 0 12
-7 23 -15 26 -8 4 -15 16 -15 28 0 12 -9 29 -20 39 -11 9 -20 23 -20 31 0 7
-7 19 -15 26 -8 7 -15 21 -15 31 0 10 -8 24 -19 31 -10 7 -20 22 -23 33 -2 14
-12 20 -33 21 -62 3 -65 4 -65 27 0 12 -9 30 -20 40 -11 9 -20 26 -20 37 0 21
-2 22 -60 24 -28 1 -36 5 -38 22 -2 12 -12 30 -23 40 -10 9 -19 23 -19 29 0
22 -27 37 -47 27 -24 -13 -49 1 -57 33 -5 21 -12 25 -46 25 -26 0 -47 7 -59
19 -11 11 -22 17 -25 14 -3 -4 -6 -1 -6 6 0 7 -4 9 -10 6 -5 -3 -19 0 -30 8
-13 9 -43 13 -90 11 -59 -2 -72 0 -76 14 -15 49 37 46 -843 47 -452 0 -829 -4
-837 -8z m1406 -222 c6 4 16 2 23 -3 7 -5 60 -10 118 -9 114 0 129 -4 129 -34
0 -21 0 -21 85 -24 33 -2 65 -3 72 -4 6 0 16 -15 22 -32 9 -27 15 -31 38 -26
37 7 63 -8 63 -38 0 -15 7 -26 21 -30 11 -4 25 -18 31 -31 8 -18 14 -21 24
-13 15 13 64 -16 64 -38 0 -17 68 -89 76 -80 4 3 19 0 35 -9 20 -10 29 -22 29
-39 0 -14 4 -25 10 -25 5 0 16 -16 24 -35 8 -19 20 -35 25 -35 6 0 11 -11 11
-25 0 -14 7 -28 15 -31 8 -4 15 -14 15 -24 0 -9 9 -25 20 -35 11 -10 20 -27
20 -37 0 -10 7 -21 15 -24 8 -4 15 -14 15 -24 0 -9 9 -25 20 -35 22 -20 26
-64 8 -84 -10 -11 -10 -14 0 -18 6 -3 12 -20 12 -39 0 -22 6 -37 15 -40 8 -4
15 -18 15 -34 0 -16 -7 -30 -15 -34 -8 -3 -15 -14 -15 -24 0 -11 7 -25 15 -32
18 -15 20 -61 3 -79 -10 -11 -10 -14 0 -18 18 -7 16 -79 -3 -87 -8 -3 -15 -17
-15 -31 0 -14 -6 -34 -12 -45 -10 -15 -10 -22 0 -32 19 -19 14 -62 -8 -76 -11
-7 -20 -23 -20 -36 0 -13 -7 -26 -15 -30 -8 -3 -15 -18 -15 -34 0 -15 -5 -33
-12 -40 -9 -9 -9 -15 0 -24 33 -33 -9 -106 -44 -77 -16 13 -44 -4 -44 -27 0
-8 -9 -22 -20 -31 -11 -10 -20 -24 -20 -33 0 -9 -9 -23 -20 -33 -11 -9 -20
-25 -20 -36 0 -10 -7 -21 -15 -25 -8 -3 -15 -14 -15 -24 0 -10 -9 -27 -20 -37
-11 -10 -20 -24 -20 -30 0 -23 -30 -40 -49 -28 -22 14 -51 -1 -51 -26 0 -29
-25 -44 -60 -36 -28 6 -31 4 -41 -24 -6 -17 -16 -32 -22 -32 -7 -1 -28 -2 -47
-3 -26 -1 -35 -6 -38 -21 -5 -30 -31 -45 -63 -38 -16 3 -35 0 -44 -7 -8 -6
-19 -9 -25 -5 -5 3 -22 -7 -38 -23 l-27 -28 -300 2 c-165 1 -303 2 -307 3 -5
0 -8 9 -8 20 0 24 -25 45 -46 37 -27 -10 -52 3 -62 33 -10 27 -12 28 -73 26
-73 -2 -99 7 -99 36 0 11 -6 22 -14 25 -8 3 -19 19 -25 36 -9 27 -14 29 -41
23 -35 -8 -60 7 -60 37 0 10 -7 21 -15 24 -8 4 -15 15 -15 25 0 11 -9 27 -20
36 -11 10 -20 23 -20 30 0 7 -9 21 -20 30 -11 10 -20 25 -20 34 0 9 -7 22 -15
29 -8 7 -15 21 -15 31 0 10 -11 26 -25 35 -14 9 -25 23 -25 30 0 8 -4 14 -10
14 -5 0 -10 13 -10 29 0 16 -7 34 -15 41 -8 7 -15 19 -15 26 0 8 -9 22 -20 31
-11 10 -20 25 -20 35 0 10 -9 27 -19 37 -20 20 -19 52 2 79 8 9 8 16 0 20 -6
4 -12 32 -15 62 -3 30 -3 49 -1 43 6 -18 23 -16 23 2 0 8 -4 15 -10 15 -5 0
-10 11 -10 24 0 13 -9 35 -20 49 -25 32 -25 48 1 70 12 11 18 25 15 34 -4 9 0
24 9 33 14 15 14 20 0 46 -19 37 -19 39 6 63 17 16 21 28 16 58 -3 21 -3 33 0
26 3 -10 7 -10 17 0 11 9 10 14 -1 25 -18 18 -17 61 2 68 8 4 15 15 15 25 0
11 9 27 20 36 11 10 20 28 20 40 0 13 5 23 11 23 5 0 16 15 24 34 8 19 19 37
25 41 5 3 10 15 10 25 0 10 6 23 13 27 8 4 20 22 28 38 10 20 21 29 34 28 37
-5 65 7 65 27 0 10 6 23 13 27 8 4 20 22 28 38 12 25 20 30 49 30 26 0 37 6
46 23 6 12 18 28 27 35 8 7 17 21 19 32 2 16 13 21 48 25 35 4 46 9 48 25 6
33 16 37 99 40 89 3 145 14 138 25 -14 22 31 33 135 34 72 1 113 5 121 13 9 9
16 9 25 2 7 -6 18 -8 24 -4z"/>
<path d="M9804 7863 c-7 -28 -35 -45 -54 -33 -8 5 -19 6 -25 2 -5 -4 -28 -7
-50 -7 -34 0 -40 -3 -43 -23 -4 -27 -35 -45 -63 -37 -24 8 -49 -10 -49 -35 0
-10 -7 -20 -15 -24 -8 -3 -15 -14 -15 -24 0 -28 -20 -42 -61 -42 -32 0 -38 -4
-48 -30 -5 -16 -15 -30 -20 -30 -6 0 -11 -9 -11 -20 0 -11 -9 -28 -20 -37 -11
-10 -20 -25 -20 -34 0 -9 -7 -19 -15 -23 -8 -3 -15 -14 -15 -24 0 -10 -9 -29
-20 -42 -11 -13 -20 -34 -20 -47 0 -12 -4 -23 -10 -23 -5 0 -10 -7 -10 -15 0
-8 5 -15 10 -15 16 0 12 -70 -5 -76 -9 -4 -15 -19 -15 -40 0 -21 -6 -37 -17
-43 -17 -9 -16 -11 1 -30 10 -11 16 -27 12 -36 -3 -9 3 -23 14 -32 24 -21 26
-58 5 -67 -8 -3 -15 -14 -15 -24 0 -11 7 -25 15 -32 8 -7 15 -22 15 -34 0 -12
9 -27 20 -34 11 -7 20 -21 20 -32 0 -12 7 -23 15 -26 8 -4 15 -17 15 -30 0
-13 9 -28 20 -34 11 -6 20 -19 20 -29 0 -10 7 -24 15 -31 8 -7 15 -18 15 -25
0 -6 9 -22 20 -35 11 -13 20 -29 20 -35 0 -7 7 -18 15 -25 8 -7 15 -21 15 -31
0 -10 9 -23 20 -29 11 -6 20 -19 20 -30 0 -19 32 -36 50 -25 16 10 50 -14 50
-35 0 -19 32 -44 43 -33 3 3 22 2 42 -1 25 -5 35 -12 35 -25 0 -14 11 -20 43
-26 60 -11 486 -10 497 1 4 5 10 18 12 29 3 17 12 20 73 23 85 3 95 6 95 31 0
11 9 25 20 31 11 6 20 19 20 30 0 24 17 34 60 35 29 0 36 4 38 23 2 12 12 28
23 35 10 6 19 19 19 29 0 23 51 63 61 47 8 -14 29 -3 29 15 0 8 11 21 25 30
15 10 25 26 25 41 0 13 5 27 10 30 6 3 10 13 10 22 0 9 10 27 21 39 20 21 20
24 5 39 -22 22 -20 48 4 70 11 10 20 31 20 46 0 15 6 29 13 32 10 3 10 9 0 26
-16 26 -17 93 -2 108 8 8 8 13 0 17 -6 4 -11 20 -11 36 0 19 -7 33 -20 40 -11
6 -20 17 -20 25 0 9 9 23 20 32 11 10 20 25 20 34 0 9 -9 24 -20 34 -11 10
-20 26 -20 35 0 10 -7 20 -15 24 -8 3 -15 14 -15 24 0 10 -9 27 -20 37 -11 10
-20 26 -20 35 0 10 -7 20 -15 24 -8 3 -15 14 -15 24 0 10 -9 27 -20 37 -11 10
-20 26 -20 35 0 10 -7 20 -15 24 -8 3 -15 12 -15 20 0 26 -29 46 -58 40 -30
-6 -47 7 -54 41 -2 14 -12 20 -33 22 -17 0 -38 2 -47 2 -12 1 -18 9 -18 26 0
29 -28 47 -52 34 -20 -11 -68 8 -68 27 0 19 -19 27 -34 15 -9 -7 -16 -7 -25 2
-9 9 -69 12 -212 13 l-199 1 -6 -24z m215 -204 c8 12 12 12 25 -2 13 -13 32
-15 85 -13 78 4 86 1 100 -37 10 -25 14 -27 44 -22 36 7 52 -4 59 -40 2 -14
12 -20 33 -21 60 -2 65 -4 65 -22 0 -11 9 -27 20 -37 11 -10 20 -26 20 -35 0
-10 7 -23 15 -30 8 -7 15 -20 15 -29 0 -9 9 -22 20 -29 11 -7 20 -21 20 -32 0
-12 7 -23 15 -26 17 -7 22 -84 5 -84 -5 0 -10 -7 -10 -15 0 -8 5 -15 10 -15 6
0 10 -11 10 -23 0 -13 9 -34 20 -47 11 -13 20 -28 20 -35 0 -7 -9 -20 -20 -30
-11 -10 -20 -27 -20 -37 0 -10 -7 -21 -15 -24 -8 -4 -15 -18 -15 -32 0 -14 -7
-33 -15 -42 -14 -15 -14 -18 0 -30 21 -18 19 -63 -4 -77 -11 -7 -21 -23 -23
-35 -2 -19 -11 -24 -48 -28 -37 -4 -46 -9 -48 -28 -2 -12 -12 -27 -22 -32 -10
-5 -20 -20 -22 -32 -2 -19 -9 -23 -38 -23 -42 0 -60 -10 -60 -33 0 -27 -36
-45 -60 -30 -15 9 -22 10 -31 1 -8 -8 -18 -9 -35 -1 -17 8 -27 8 -38 -1 -11
-10 -19 -9 -34 0 -16 10 -23 10 -35 0 -12 -10 -20 -10 -36 1 -15 9 -23 10 -32
1 -8 -8 -18 -9 -35 -1 -17 8 -27 8 -39 -2 -12 -10 -18 -10 -31 1 -13 10 -20
10 -36 0 -23 -15 -48 0 -48 30 0 23 -17 33 -60 34 -26 0 -37 6 -46 23 -6 13
-17 29 -23 35 -6 6 -11 19 -11 29 0 9 -9 22 -20 28 -11 6 -20 21 -20 33 0 12
-9 28 -20 35 -11 7 -20 21 -20 31 0 10 -7 21 -15 25 -8 3 -15 14 -15 24 0 11
-7 25 -15 32 -8 7 -15 21 -15 31 0 11 -9 27 -20 36 -24 21 -26 46 -5 63 8 7
15 20 15 30 0 10 -7 23 -15 30 -20 17 -19 36 5 60 11 11 20 25 20 30 0 6 -9
18 -20 27 -11 10 -20 24 -20 33 0 9 9 23 20 33 11 9 20 25 20 36 0 10 7 21 15
25 8 3 15 14 15 23 0 10 9 26 20 36 11 9 20 25 20 36 0 10 6 21 14 24 8 3 16
16 18 29 3 20 10 23 51 26 44 3 48 6 53 32 7 32 26 44 56 34 23 -7 48 12 48
36 0 24 14 28 91 24 45 -2 73 2 85 11 14 10 21 10 26 2 6 -9 10 -8 17 2z"/>
<path d="M9912 7334 c-9 -6 -22 -10 -29 -7 -14 6 -83 -60 -83 -80 0 -8 -7 -20
-15 -27 -8 -7 -15 -25 -15 -41 0 -16 -7 -32 -17 -38 -17 -10 -17 -12 0 -25 9
-7 17 -25 17 -38 0 -14 7 -31 15 -38 8 -7 15 -21 15 -31 0 -10 9 -23 20 -29
12 -6 20 -21 20 -35 0 -14 5 -25 11 -25 5 0 15 -13 20 -30 12 -33 4 -31 169
-35 93 -2 110 2 110 24 0 28 28 45 66 43 30 -2 34 0 34 21 0 14 -7 30 -15 37
-20 17 -19 33 5 55 11 10 20 26 20 35 0 10 7 23 15 30 8 7 15 21 15 32 0 10
-7 21 -15 24 -8 4 -15 15 -15 25 0 11 -9 27 -20 36 -11 10 -20 28 -20 40 0 13
-5 23 -11 23 -5 0 -15 14 -20 30 -12 33 0 31 -172 34 -55 1 -95 -3 -105 -10z"/>
<path d="M8445 6640 c-3 -5 -1 -10 4 -10 6 0 11 5 11 10 0 6 -2 10 -4 10 -3 0
-8 -4 -11 -10z"/>
<path d="M7083 7643 c-7 -2 -13 -13 -13 -22 0 -10 -9 -26 -20 -36 -12 -11 -20
-31 -20 -52 0 -18 -4 -33 -10 -33 -5 0 -10 -5 -10 -11 0 -6 6 -9 13 -6 6 2 28
-4 48 -14 28 -14 39 -15 48 -6 9 9 16 8 32 -1 18 -11 24 -11 40 4 24 22 24 30
-1 51 -11 10 -20 27 -20 39 0 12 -7 24 -15 28 -8 3 -15 14 -15 24 0 32 -26 48
-57 35z"/>
<path d="M7353 7624 c-3 -8 4 -25 16 -38 11 -12 21 -32 21 -44 0 -26 12 -28
34 -6 14 14 14 18 1 37 -8 12 -15 32 -15 44 0 18 -6 23 -25 23 -14 0 -28 -7
-32 -16z"/>
<path d="M7373 7513 c-8 -3 -7 -18 6 -56 19 -56 44 -68 65 -34 9 15 7 22 -11
37 -13 10 -23 25 -23 33 0 16 -18 26 -37 20z"/>
<path d="M6062 7458 c-7 -7 -12 -20 -12 -30 0 -10 -6 -21 -14 -24 -8 -3 -18
-18 -21 -34 -3 -16 -13 -31 -21 -34 -20 -8 -18 -32 5 -53 10 -10 21 -27 23
-38 3 -16 11 -20 42 -20 30 -1 43 -7 61 -29 27 -34 55 -29 55 9 0 16 6 25 15
25 8 0 15 9 15 20 0 11 -4 20 -10 20 -5 0 -10 20 -10 45 0 25 5 45 10 45 6 0
10 7 10 15 0 8 -4 15 -10 15 -5 0 -10 13 -10 29 0 39 -25 59 -52 42 -15 -9
-23 -10 -31 -2 -14 14 -30 14 -45 -1z"/>
<path d="M6649 6662 c-11 -8 -26 -11 -34 -8 -19 7 -30 -13 -16 -27 15 -15 14
-80 -1 -95 -18 -18 6 -40 25 -23 12 9 16 8 21 -4 3 -8 18 -15 34 -15 22 0 31
7 43 33 10 23 20 31 34 29 11 -2 26 -4 34 -5 22 -3 38 30 23 51 -7 9 -17 29
-23 45 -6 15 -14 27 -17 28 -46 6 -108 2 -123 -9z"/>
<path d="M5384 6284 c-8 -29 -40 -54 -71 -54 -24 0 -31 -14 -13 -25 6 -3 10
-19 10 -34 0 -36 21 -54 53 -46 30 8 67 -9 67 -30 0 -8 4 -15 9 -15 21 0 41
13 41 26 0 15 43 29 60 19 5 -3 19 -3 30 0 24 8 27 47 5 65 -19 16 -19 44 0
60 9 7 15 23 13 34 -3 20 -10 21 -101 23 -95 1 -97 1 -103 -23z"/>
<path d="M2547 6364 c-4 -4 -7 -22 -7 -40 0 -18 -6 -34 -12 -37 -10 -4 -10 -7
0 -18 17 -18 15 -64 -3 -79 -8 -7 -15 -20 -15 -30 0 -10 7 -23 15 -30 8 -7 15
-23 15 -35 0 -13 -7 -25 -15 -29 -8 -3 -15 -17 -15 -31 0 -14 7 -28 15 -31 18
-7 20 -65 3 -82 -9 -9 -9 -15 0 -24 7 -7 12 -24 12 -40 0 -17 7 -31 20 -38 11
-6 20 -19 20 -30 0 -30 34 -43 54 -21 21 23 20 38 -4 51 -21 11 -27 44 -10 55
5 3 15 15 20 25 8 16 6 23 -10 37 -24 21 -28 83 -5 83 8 0 15 4 15 9 0 5 -7
14 -15 21 -19 16 -19 74 0 93 13 13 13 16 0 27 -19 16 -19 60 -1 86 12 16 13
22 1 40 -7 11 -15 31 -17 45 -2 17 -10 25 -28 27 -14 2 -29 0 -33 -4z m63
-204 c0 -5 -5 -10 -11 -10 -5 0 -7 5 -4 10 3 6 8 10 11 10 2 0 4 -4 4 -10z"/>
<path d="M2288 6353 c-10 -2 -18 -11 -18 -18 0 -8 -9 -19 -20 -25 -11 -6 -20
-19 -20 -30 0 -23 -43 -55 -63 -47 -8 3 -20 1 -27 -3 -11 -7 -10 -11 3 -25 10
-9 17 -29 17 -45 0 -16 7 -30 15 -34 8 -3 15 -14 15 -24 0 -27 25 -45 50 -37
13 4 20 15 20 30 0 14 9 29 20 35 11 6 20 20 20 31 0 11 7 22 15 25 8 4 15 17
15 30 0 13 4 24 10 24 14 0 31 37 24 54 -3 9 -13 16 -20 16 -8 0 -19 11 -24
25 -5 14 -11 24 -12 24 -2 -1 -11 -3 -20 -6z"/>
<path d="M2410 5790 c0 -5 5 -10 10 -10 6 0 10 5 10 10 0 6 -4 10 -10 10 -5 0
-10 -4 -10 -10z"/>
</g>
</svg>
